<svg xmlns="http://www.w3.org/2000/svg" version="1.1" xmlns:xlink="http://www.w3.org/1999/xlink" xmlns:svgjs="http://svgjs.dev/svgjs" width="1500" height="1687" viewBox="0 0 1500 1687"><g transform="matrix(1,0,0,1,2.2737367544323206e-13,0)"><svg viewBox="0 0 320 360" data-background-color="#efefef" preserveAspectRatio="xMidYMid meet" height="1687" width="1500" xmlns="http://www.w3.org/2000/svg" xmlns:xlink="http://www.w3.org/1999/xlink"><g id="tight-bounds" transform="matrix(1,0,0,1,0,0)"><svg viewBox="0 0 320 360" height="360" width="320"><g><svg></svg></g><g><svg viewBox="0 0 320 360" height="360" width="320"><g><path d="M20.961 227.22l3.726 4.658-1.863-6.056c-0.466-2.795-3.726 0.466-1.863 1.398M25.153 224.425c1.397 2.329 2.795 4.658 2.795 6.987 0 3.261 2.795 4.658 5.123 5.589-3.261-3.726-5.124-13.974-7.918-12.576M204.017 26.929c7.918 0 15.371-0.932 23.756 0.931 20.495 5.124 37.729 15.371 49.374 29.811l32.606 52.169c1.397 13.042 4.192 27.482 3.726 43.319 3.261 0 2.795-4.658 6.521-5.59-3.726 9.316-5.59 20.961-6.521 34.469-2.329-7.453 0-18.632 0.466-24.687-3.261 5.124-5.124 1.397-5.124-0.932 0.466-3.726-1.397-3.261-2.795-4.658-5.124-4.658-8.384-9.782-12.11-17.7 2.329-6.055 2.795-14.905-4.658-19.563-2.329-1.397-5.124-3.726-6.521-7.453-1.863-5.124-5.124-11.179-4.193-19.097 0.466-2.329-6.987 5.124-11.179 1.863-18.166-12.576-36.332-27.016-58.224-39.127-11.645 0-20.029-4.192-24.221-9.316-3.726-4.658-0.932-10.713 4.658-11.179 3.261 0 6.987-0.932 9.782 0.932 0.466-1.863 2.329-4.192 4.657-4.192M157.904 16.215l0.932 0.466c4.658 0.932 6.987 7.453 12.11 5.124 0 3.261 0.466 6.521-0.466 8.85-1.397 3.726-5.59 3.726-8.85 3.726-31.208-1.863-49.374 11.179-68.471 22.358-5.124 3.261-10.713 5.59-14.906 9.782-20.029 18.632-41.921 35.866-47.045 70.335l-4.192 38.195c-0.466 4.192-5.124 8.384-4.192 13.508l3.26 22.824c-3.261-3.261-5.124 0.932-4.192 2.795 0.466 1.397 2.329 6.055 5.124 1.863 3.726 6.987 7.453 20.495 12.576 26.55 15.837 18.632 36.332 35.4 53.101 52.169 4.192-0.932 7.453-0.932 8.384-3.727 1.397 2.795-1.397 5.59-3.726 6.056 7.453 4.658 15.837 8.85 27.016 9.781 14.44 0.932 27.948 3.261 40.524 6.522 6.521-1.863 13.042-2.795 20.029-3.261 2.329 0 3.726-3.726 6.521-4.658l0.466-4.658c2.795 4.192 2.329-1.397 0.466-4.192 3.261 2.795 4.192 5.124 5.589 6.987 0-1.397 3.726-6.521 3.727-0.466l0.931-6.055c1.397-0.932 1.863 5.124 3.261 0.931 1.397-4.192 4.192-0.932 6.987-2.329-0.932 1.863-0.466 5.59 2.794 3.261l3.727-3.261c2.329 5.59 6.055 3.261 7.918 2.329 20.495-13.042 40.99-28.413 60.553-43.784l-0.466 6.055 2.329-7.453c2.329 2.329 4.192 0.466 5.124-0.931 2.795-4.658 6.521-9.316 12.577-13.508-7.453 20.029-16.303 35.866-27.482 48.908l-4.658 5.59c0 3.261-0.932 7.453-4.658 7.918-1.863 0.466-5.59-0.932-8.384 1.863-1.397 1.863 3.261 5.59-0.466 2.795-3.261-2.329-6.521 0-10.248 0.932-2.795 0.932 1.863 3.726 2.795 5.589 0.932 1.863 1.863 3.726 1.398 6.056l-5.124-5.59c-6.055 3.261-9.782 9.316-14.906 13.974-2.329 1.863-1.397 5.124-1.397 7.918-3.261 0-6.987-0.932-8.85 0.932-1.397 1.863-0.932 4.658-0.932 7.453-4.658-0.466-5.124-7.453-9.315-6.056-4.192 0.932-8.85 1.397-12.577 3.727 2.795 5.59-4.658 2.329-3.726 3.26-6.987-4.192-13.042-7.453-20.495-4.658-15.837-5.124-35.4-2.795-49.84-0.931 0-2.329 0.466-4.658-0.466-5.124-0.932 2.329-3.726 1.397-3.26 1.397-8.85-6.055-17.7-9.782-27.016-14.905-8.384 0.932-16.303-3.261-18.632-5.59-6.521-6.055-13.974-2.795-20.029-4.192-13.042-3.261-17.7-16.769-19.098-26.084-0.932-4.658-4.658-6.521-6.055-6.056-6.055-19.563-15.371-37.263-22.824-55.429-1.863-4.658-1.397-9.316-1.397-14.44 2.329 0.932 4.658 0.466 4.192-2.794-2.329-15.371-7.918-27.016-13.974-38.195 3.261-15.837 3.726-34.469 11.179-48.443 6.521-12.576 18.632-19.098 27.016-29.811 2.795-3.726 2.795-8.85 5.59-12.11 9.316-9.316 18.632-19.098 28.879-27.482 4.658-3.726 10.247 0 17.234-1.397 2.329-8.384 11.645-15.837 20.495-13.508 3.726 0.932 11.179-8.85 13.508-9.782 3.726-1.397 1.863 3.726 1.863 6.987 8.85-6.987 20.961-10.713 32.14-14.906" fill="#d94e28" fill-rule="nonzero" stroke="none" stroke-width="1" stroke-linecap="butt" stroke-linejoin="miter" stroke-miterlimit="10" stroke-dasharray="" stroke-dashoffset="0" font-family="none" font-weight="none" font-size="none" text-anchor="none" style="mix-blend-mode: normal" data-fill-palette-color="tertiary"></path></g><g transform="matrix(1,0,0,1,64,140.0739272930108)"><svg viewBox="0 0 192 79.8521454139784" height="79.8521454139784" width="192"><g><svg viewBox="0 0 192 79.8521454139784" height="79.8521454139784" width="192"><g><svg viewBox="0 0 192 79.8521454139784" height="79.8521454139784" width="192"><g><svg viewBox="0 0 192 79.8521454139784" height="79.8521454139784" width="192"><g id="textblocktransform"><svg viewBox="0 0 192 79.8521454139784" height="79.8521454139784" width="192" id="textblock"><g><svg viewBox="0 0 192 79.8521454139784" height="79.8521454139784" width="192"><g transform="matrix(1,0,0,1,0,0)"><svg width="192" viewBox="1.95 -31.681481121872004 81.816666666665 34.031481121872005" height="79.8521454139784" data-palette-color="#d94e28"><path d="M29.35-3.6L29.35-3.6Q29.3-3.45 29.33-3.33 29.35-3.2 29.25-3.15L29.25-3.15Q28.65-2.45 28.03-1.7 27.4-0.95 26.8-0.15L26.8-0.15 26.35 0.3Q26.1 0.35 25.83 0.35 25.55 0.35 25.25 0.4L25.25 0.4Q25.05 0.45 24.83 0.53 24.6 0.6 24.4 0.7L24.4 0.7Q23.95 0.55 23.6 0.38 23.25 0.2 23-0.15L23-0.15Q22.95-0.35 22.7-0.5L22.7-0.5Q21.95-1.05 21.2-1.63 20.45-2.2 19.6-2.6L19.6-2.6Q19.4-2.7 19.2-2.8 19-2.9 18.75-3.05L18.75-3.05Q18.5-3.15 18.2-3.3 17.9-3.45 17.5-3.6L17.5-3.6Q17.3-3.8 17.03-4.03 16.75-4.25 16.5-4.5L16.5-4.5Q16.05-5 15.35-5.35L15.35-5.35Q15.05-5.45 14.8-5.68 14.55-5.9 14.3-6.1L14.3-6.1Q13.65-6.45 13.05-6.65L13.05-6.65Q12.65-7.15 12.4-7.5L12.4-7.5Q12-7.75 11.5-7.6L11.5-7.6Q11.45-7.55 11.4-7.48 11.35-7.4 11.35-7.3L11.35-7.3Q11.2-6.2 11.03-5.03 10.85-3.85 10.65-2.7L10.65-2.7Q10.75-2.6 10.83-2.45 10.9-2.3 11-2.15L11-2.15Q11.1-1.7 11.03-1.23 10.95-0.75 11.05-0.3L11.05-0.3Q11.1 0.15 11.08 0.6 11.05 1.05 11.05 1.5L11.05 1.5Q11.05 2 10.6 2L10.6 2Q10.05 1.95 9.55 2.02 9.05 2.1 8.5 2.2L8.5 2.2Q7.7 2.25 6.88 2.27 6.05 2.3 5.3 2.35L5.3 2.35Q4.8 2.35 4.35 2.2 3.9 2.05 3.45 1.85L3.45 1.85Q2.85 1.65 2.8 1.15L2.8 1.15Q2.75 0.75 2.73 0.33 2.7-0.1 2.6-0.45L2.6-0.45Q2.55-0.85 2.65-1.2 2.75-1.55 2.8-1.9L2.8-1.9Q2.7-2.3 2.58-2.65 2.45-3 2.45-3.45L2.45-3.45Q2.55-3.65 2.5-3.8 2.45-3.95 2.4-4.1L2.4-4.1Q2.2-4.5 2.18-4.95 2.15-5.4 2.2-5.8L2.2-5.8Q2.25-6.35 2.2-6.85 2.15-7.35 1.95-7.75L1.95-7.75Q2-8.2 2.08-8.58 2.15-8.95 2.15-9.3L2.15-9.3Q2.15-9.6 2.25-9.93 2.35-10.25 2.3-10.6L2.3-10.6Q2.25-10.95 2.23-11.3 2.2-11.65 2.2-12L2.2-12Q2.2-13.3 2.18-14.53 2.15-15.75 2.15-17L2.15-17Q2.25-17.85 1.95-18.55L1.95-18.55Q2.25-18.95 2.43-19.33 2.6-19.7 3-20L3-20Q3.15-20.15 2.7-20.3L2.7-20.3Q2.65-20.3 2.63-20.33 2.6-20.35 2.55-20.35L2.55-20.35Q2.35-20.7 2.45-21.08 2.55-21.45 2.45-21.8L2.45-21.8Q2.4-22.2 2.58-22.5 2.75-22.8 2.75-23.15L2.75-23.15Q2.7-23.4 2.68-23.6 2.65-23.8 2.6-24L2.6-24Q2.65-24.15 2.68-24.38 2.7-24.6 2.75-24.8L2.75-24.8Q2.45-25.95 2.43-27.1 2.4-28.25 2.4-29.4L2.4-29.4Q2.4-29.7 2.55-30L2.55-30Q2.55-30.2 2.65-30.33 2.75-30.45 2.85-30.55L2.85-30.55Q3.6-30.85 4.35-31.13 5.1-31.4 5.9-31.35L5.9-31.35Q6.3-31.3 6.75-31.45L6.75-31.45Q7.3-31.7 7.85-31.68 8.4-31.65 8.95-31.55L8.95-31.55Q9.35-31.45 9.7-31.33 10.05-31.2 10.35-30.9L10.35-30.9Q10.75-30.85 11.08-31.03 11.4-31.2 11.75-31.2L11.75-31.2Q11.8-31.15 11.88-31.15 11.95-31.15 11.95-31.05L11.95-31.05Q12.35-30.4 12.35-29.65L12.35-29.65Q12.3-29.35 12.38-29.03 12.45-28.7 12.55-28.3L12.55-28.3Q12.45-28 12.4-27.63 12.35-27.25 12.25-26.85L12.25-26.85Q12.2-26.3 12.25-25.7L12.25-25.7Q12.3-25.3 12.3-24.85 12.3-24.4 12.3-24L12.3-24Q12.3-23.85 12.25-23.73 12.2-23.6 12.2-23.5L12.2-23.5Q11.95-22.95 11.9-22.6L11.9-22.6Q11.9-22.3 11.9-22.03 11.9-21.75 11.95-21.45L11.95-21.45Q11.95-21.4 11.9-21.25 11.85-21.1 11.9-21L11.9-21Q12-20.5 12-19.98 12-19.45 12.05-18.9L12.05-18.9Q12.05-18.55 12.35-18.4L12.35-18.4Q12.65-18.45 12.9-18.65 13.15-18.85 13.5-18.85L13.5-18.85Q14.05-19.3 14.55-19.6L14.55-19.6Q14.75-19.7 14.93-19.75 15.1-19.8 15.3-19.85L15.3-19.85Q15.6-20 15.73-20.33 15.85-20.65 16.05-20.85L16.05-20.85Q17.15-21.65 18-22.55L18-22.55Q18.25-22.8 18.57-23.08 18.9-23.35 19.2-23.55L19.2-23.55Q19.3-23.65 19.4-23.73 19.5-23.8 19.55-23.85L19.55-23.85Q20.2-24.7 21.1-25.25 22-25.8 22.7-26.4L22.7-26.4Q23.25-26.5 23.75-26.63 24.25-26.75 24.7-26.8L24.7-26.8Q25.55-26.7 25.75-26.15L25.75-26.15Q25.85-25.95 25.98-25.8 26.1-25.65 26.2-25.45L26.2-25.45Q26.75-24.9 27.3-24.3 27.85-23.7 28.4-23.1L28.4-23.1Q28.55-22.95 28.68-22.75 28.8-22.55 28.9-22.35L28.9-22.35Q29-22.15 28.93-22 28.85-21.85 28.75-21.75L28.75-21.75Q28.45-21.45 28.13-21.13 27.8-20.8 27.35-20.65L27.35-20.65Q27.25-20.6 27.15-20.53 27.05-20.45 26.95-20.4L26.95-20.4Q26.7-20.2 26.53-19.98 26.35-19.75 26.4-19.4L26.4-19.4Q26.25-19.2 26.1-19.1L26.1-19.1 24.9-18.05Q24.9-18.05 24.8-17.95L24.8-17.95Q24.05-17.6 23.43-17.13 22.8-16.65 22.1-16.25L22.1-16.25Q21.35-15.9 20.73-15.4 20.1-14.9 19.65-14.2L19.65-14.2Q19.55-13.95 19.3-13.8 19.05-13.65 18.95-13.35L18.95-13.35Q18.95-13.1 19.05-13.05L19.05-13.05Q19.15-13 19.3-12.9 19.45-12.8 19.6-12.7L19.6-12.7Q20.05-12.5 20.4-12.18 20.75-11.85 21.05-11.45L21.05-11.45Q21.4-10.95 21.88-10.53 22.35-10.1 22.9-9.7L22.9-9.7Q23.05-9.6 23.25-9.43 23.45-9.25 23.65-9.1L23.65-9.1Q24-8.6 24.48-8.25 24.95-7.9 25.4-7.55L25.4-7.55Q25.7-7.35 26.03-7.1 26.35-6.85 26.7-6.6L26.7-6.6Q26.95-6.25 27.15-5.8 27.35-5.35 27.9-5.25L27.9-5.25Q28.2-4.7 28.45-4.2 28.7-3.7 29.35-3.6ZM52.05-25.15L52.05-25.15Q51.75-24.5 51.25-24.08 50.75-23.65 50.4-23.1L50.4-23.1Q50-23 49.62-22.75 49.25-22.5 48.95-22.25L48.95-22.25Q48.45-21.95 48.05-22.25L48.05-22.25Q47.85-22.35 47.72-22.48 47.6-22.6 47.4-22.7L47.4-22.7Q47-23.05 46.35-22.95L46.35-22.95Q46.3-22.9 46.2-23L46.2-23 46.2-23.5Q46.15-23.55 46.07-23.65 46-23.75 45.9-23.75L45.9-23.75Q44.9-24.15 44-23.8L44-23.8Q43.7-23.75 43.4-23.65 43.1-23.55 42.8-23.45L42.8-23.45Q42.6-23.15 42.42-22.85 42.25-22.55 42.05-22.3L42.05-22.3Q42.1-21.9 42.12-21.5 42.15-21.1 42.2-20.7L42.2-20.7Q42.45-20.4 42.67-20.08 42.9-19.75 43.1-19.4L43.1-19.4Q43.55-19.05 44.05-18.73 44.55-18.4 45-18L45-18Q45.3-17.8 45.62-17.68 45.95-17.55 46.2-17.3L46.2-17.3Q46.45-17.05 46.67-16.88 46.9-16.7 47.1-16.45L47.1-16.45Q47.25-16.4 47.4-16.3 47.55-16.2 47.7-16.1L47.7-16.1Q48.55-15.55 49-14.6L49-14.6Q49.25-14.2 49.52-13.75 49.8-13.3 50.05-12.9L50.05-12.9Q50.4-12.6 50.52-12.2 50.65-11.8 50.8-11.4L50.8-11.4Q50.85-11.35 50.85-11.2L50.85-11.2Q50.95-10.6 51.17-10.05 51.4-9.5 51.65-8.95L51.65-8.95Q51.8-8.3 51.82-7.68 51.85-7.05 51.75-6.45L51.75-6.45Q51.75-5.95 51.62-5.48 51.5-5 51.3-4.6L51.3-4.6Q51.25-4.55 51.25-4.5 51.25-4.45 51.15-4.35L51.15-4.35Q50.7-3.9 50.42-3.35 50.15-2.8 49.8-2.25L49.8-2.25Q49.75-2.2 49.75-2.13 49.75-2.05 49.65-2L49.65-2Q49.15-1.65 48.82-1.25 48.5-0.85 48.1-0.45L48.1-0.45Q47.9-0.25 47.6-0.1 47.3 0.05 47.05 0.25L47.05 0.25 46 0.75Q45.5 0.8 44.97 0.9 44.45 1 43.9 1.25L43.9 1.25Q43.55 1.45 43.12 1.55 42.7 1.65 42.3 1.75L42.3 1.75Q42.1 1.8 41.9 1.85 41.7 1.9 41.5 1.95L41.5 1.95Q40.85 1.45 40.05 1.45L40.05 1.45Q39.5 1.45 39.1 1.25L39.1 1.25Q38.5 1 37.95 0.73 37.4 0.45 36.95 0L36.95 0Q36.65-0.25 36.35-0.45 36.05-0.65 35.8-0.85L35.8-0.85Q35.6-1.05 35.32-1.13 35.05-1.2 34.8-1.3L34.8-1.3Q34.45-1.55 34.4-1.85L34.4-1.85Q34.45-2.25 34.72-2.6 35-2.95 35.2-3.35L35.2-3.35Q35.2-3.65 35.35-4.1L35.35-4.1Q35.8-4.7 36.3-5.33 36.8-5.95 37.3-6.6L37.3-6.6Q37.5-6.75 37.75-6.93 38-7.1 38.3-7.3L38.3-7.3Q39.3-7.05 40.2-6.75 41.1-6.45 42.05-6.2L42.05-6.2Q42.25-6.25 42.35-6.33 42.45-6.4 42.5-6.45L42.5-6.45Q42.65-6.5 42.75-6.55 42.85-6.6 42.9-6.65L42.9-6.65 43.8-6.65Q43.85-6.75 43.92-6.83 44-6.9 44.05-7L44.05-7Q44.25-7.5 44.45-7.95 44.65-8.4 44.7-8.95L44.7-8.95Q44.6-9.35 44.47-9.8 44.35-10.25 44-10.7L44-10.7Q43.8-10.85 43.55-11.05 43.3-11.25 43.05-11.45L43.05-11.45Q42.2-11.55 41.32-11.9 40.45-12.25 39.6-12.25L39.6-12.25Q39.25-12.35 39.05-12.58 38.85-12.8 38.6-13L38.6-13Q38.25-13.1 37.85-13.15 37.45-13.2 37.2-13.55L37.2-13.55Q36.4-14 35.85-14.2L35.85-14.2Q35.6-14.5 35.37-14.8 35.15-15.1 34.9-15.35L34.9-15.35Q34.7-15.6 34.52-15.98 34.35-16.35 34.1-16.7L34.1-16.7Q33.9-16.95 33.75-17.28 33.6-17.6 33.45-17.95L33.45-17.95Q33.3-18.65 33.15-19.45L33.15-19.45Q33.25-20 33.32-20.58 33.4-21.15 33.45-21.75L33.45-21.75 33.25-22.25Q33.45-22.35 33.55-22.55 33.65-22.75 33.75-22.95L33.75-22.95Q33.85-23.25 34-23.45 34.15-23.65 34.1-24L34.1-24Q34.1-24.95 34.6-25.75L34.6-25.75Q34.7-25.95 34.77-26.1 34.85-26.25 34.9-26.4L34.9-26.4Q35.15-26.55 35.32-26.73 35.5-26.9 35.55-26.95L35.55-26.95Q35.8-27.2 35.75-27.43 35.7-27.65 35.75-27.85L35.75-27.85Q35.95-28.15 36.2-28.45 36.45-28.75 36.75-29.1L36.75-29.1Q37.1-29.35 37.5-29.53 37.9-29.7 38.25-30.05L38.25-30.05Q38.35-30.2 38.5-30.28 38.65-30.35 38.85-30.4L38.85-30.4Q39.1-30.55 39.4-30.65 39.7-30.75 40-30.9L40-30.9Q40.5-31 41.02-31.05 41.55-31.1 42.05-31.15L42.05-31.15Q42.1-31.15 42.17-31.18 42.25-31.2 42.35-31.15L42.35-31.15Q42.9-30.95 43.47-31.15 44.05-31.35 44.65-31.3L44.65-31.3Q45.2-31.3 45.72-31.15 46.25-31 46.75-30.9L46.75-30.9Q47.3-30.5 47.85-30.18 48.4-29.85 49.05-29.65L49.05-29.65Q49.25-29.45 49.42-29.23 49.6-29 49.8-28.75L49.8-28.75Q50-28.55 50.2-28.4 50.4-28.25 50.55-28.05L50.55-28.05Q50.95-27.3 51.32-26.58 51.7-25.85 52.05-25.15ZM83.75-22L83.75-22Q83.7-21.4 83.75-20.83 83.8-20.25 83.7-19.7L83.7-19.7Q83.55-19.05 83.5-18.4 83.45-17.75 83.4-17.1L83.4-17.1Q83.2-16.75 83.07-16.38 82.95-16 82.75-15.7L82.75-15.7Q82.55-15.4 82.34-15.13 82.15-14.85 81.9-14.5L81.9-14.5Q81.8-14.4 81.8-14.15L81.8-14.15Q81.34-13.55 80.82-13.08 80.3-12.6 79.65-12.3L79.65-12.3Q79.3-11.7 78.95-11.35L78.95-11.35Q78.84-11.2 78.59-11.1L78.59-11.1Q77.95-10.8 77.15-10.65L77.15-10.65Q76.15-10.4 75.75-9.6L75.75-9.6 75.75-8.7Q75.8-8.5 76.07-8.45 76.34-8.4 76.55-8.15L76.55-8.15Q76.55-8.1 76.65-8.05 76.75-8 76.75-7.9L76.75-7.9Q76.95-7.05 77.75-6.8L77.75-6.8Q78.05-6.4 78.32-6.03 78.59-5.65 78.84-5.3L78.84-5.3Q79.09-5.15 79.32-5.03 79.55-4.9 79.8-4.75L79.8-4.75Q79.9-4.55 80.07-4.28 80.25-4 80.4-3.75L80.4-3.75Q80.59-3.55 80.8-3.43 81-3.3 81.05-3.2L81.05-3.2Q81.2-2.55 81-2.35L81-2.35Q80.4-1.65 80.2-1.05L80.2-1.05Q80.09-0.9 80-0.83 79.9-0.75 79.8-0.65L79.8-0.65Q79.45-0.45 79.05-0.4 78.65-0.35 78.4-0.1L78.4-0.1Q78.15 0.1 77.84 0.13 77.55 0.15 77.3 0.35L77.3 0.35Q76.9 0.65 76.57 1.03 76.25 1.4 75.75 1.65L75.75 1.65Q75.55 1.6 75.25 1.6 74.95 1.6 74.7 1.6L74.7 1.6 73.7 0.9Q73.5 0.7 73.5 0.65L73.5 0.65Q73.4 0.4 73.3 0.18 73.2-0.05 73.09-0.25L73.09-0.25Q73.05-0.45 72.84-0.63 72.65-0.8 72.55-1L72.55-1 72.55-1.4Q72.55-1.8 72.2-1.8L72.2-1.8Q72.05-1.85 71.95-1.85 71.84-1.85 71.75-1.85L71.75-1.85Q71-2.4 70.34-3.2L70.34-3.2Q69.84-3.7 69.34-3.95L69.34-3.95Q68.9-4.25 68.5-4.7 68.09-5.15 67.7-5.6L67.7-5.6Q67.45-5.9 67.2-6.23 66.95-6.55 66.65-6.75L66.65-6.75Q66.2-6.8 65.75-6.75 65.3-6.7 64.95-6.5L64.95-6.5Q64.84-6.5 64.7-6.25L64.7-6.25Q64.65-5.9 64.59-5.58 64.55-5.25 64.5-4.9L64.5-4.9Q64.7-3.95 64.55-2.95L64.55-2.95Q64.4-2.4 64.37-1.85 64.34-1.3 64.3-0.75L64.3-0.75Q64.3-0.55 64.3-0.3 64.3-0.05 64.2 0.15L64.2 0.15Q64.09 0.6 63.65 0.75L63.65 0.75 63.45 0.75Q63.25 0.7 63.07 0.68 62.9 0.65 62.65 0.6L62.65 0.6Q61.9 0.8 61.1 0.65L61.1 0.65Q60.3 0.5 59.5 0.4 58.7 0.3 57.95 0.15L57.95 0.15Q57.85 0.15 57.77 0.13 57.7 0.1 57.6 0.05L57.6 0.05Q57.4-0.15 57.4-0.3L57.4-0.3Q57.4-0.75 57.35-1.23 57.3-1.7 57.2-2.2L57.2-2.2Q56.95-3.1 57.3-3.75L57.3-3.75Q57.25-4.2 57.2-4.65 57.15-5.1 57.2-5.5L57.2-5.5Q57.3-5.7 57.22-6 57.15-6.3 56.95-6.2L56.95-6.2Q56.9-6.15 56.8-6.18 56.7-6.2 56.7-6.25L56.7-6.25Q56.65-6.35 56.6-6.48 56.55-6.6 56.5-6.65L56.5-6.65Q56.5-6.9 56.5-7.2 56.5-7.5 56.45-7.75L56.45-7.75Q56.45-8 56.45-8.25 56.45-8.5 56.35-8.7L56.35-8.7Q56.2-9.2 56.2-9.75 56.2-10.3 56.2-10.8L56.2-10.8Q56.15-11 56.1-11.13 56.05-11.25 55.95-11.4L55.95-11.4Q56.05-11.75 56.12-12.08 56.2-12.4 55.95-12.75L55.95-12.75Q56.05-13.15 56-13.58 55.95-14 56.2-14.45L56.2-14.45Q56.3-14.7 56.25-14.95 56.2-15.2 56.15-15.55L56.15-15.55Q56.25-15.95 56.4-16.32 56.55-16.7 56.65-17.2L56.65-17.2Q56.6-17.45 56.5-18.05L56.5-18.05Q56.4-18.3 56.35-18.5 56.3-18.7 56.25-18.9L56.25-18.9Q56.2-19.15 56.32-19.38 56.45-19.6 56.35-19.85L56.35-19.85Q56.3-20.2 56.32-20.3 56.35-20.4 56.55-20.7L56.55-20.7Q56.5-20.8 56.5-20.88 56.5-20.95 56.45-21L56.45-21Q56-21.6 56.25-22.5L56.25-22.5Q56.35-22.8 56.47-23.1 56.6-23.4 56.65-23.65L56.65-23.65Q56.6-23.85 56.57-24.05 56.55-24.25 56.5-24.45L56.5-24.45 56.85-25.65Q56.75-26 56.7-26.35 56.65-26.7 56.55-27.05L56.55-27.05Q56.55-27.5 56.95-28L56.95-28Q57.15-28.25 57.37-28.2 57.6-28.15 57.95-28.2L57.95-28.2Q58.3-28.3 58.67-28.45 59.05-28.6 59.5-28.65L59.5-28.65Q59.95-28.7 60.35-29.05L60.35-29.05Q60.75-29.3 61.15-29.48 61.55-29.65 61.95-29.75L61.95-29.75Q62.75-29.6 62.97-29.63 63.2-29.65 63.75-30L63.75-30 64.65-30Q64.9-30.05 65.15-30.13 65.4-30.2 65.7-30.25L65.7-30.25Q65.8-30.35 66.02-30.5 66.25-30.65 66.45-30.75L66.45-30.75Q66.75-30.8 67.09-30.88 67.45-30.95 67.8-31L67.8-31Q67.95-30.95 68.07-30.88 68.2-30.8 68.34-30.7L68.34-30.7Q68.65-30.55 68.84-30.35L68.84-30.35Q69.05-30.25 69.2-30.25L69.2-30.25Q69.7-30.2 70.15-30.18 70.59-30.15 71.09-30.2L71.09-30.2Q71.25-30.25 71.47-30.25 71.7-30.25 71.9-30.25L71.9-30.25Q72.15-30.25 72.45-30.23 72.75-30.2 73-30.15L73-30.15Q73.3-30.15 73.47-29.95 73.65-29.75 73.8-29.75L73.8-29.75Q74.5-29.55 75.09-29.55 75.7-29.55 76.3-29.6L76.3-29.6Q76.55-29.5 76.82-29.38 77.09-29.25 77.34-29.15L77.34-29.15Q77.55-29.25 77.67-29.33 77.8-29.4 77.95-29.45L77.95-29.45Q78.34-29.55 78.55-29.4L78.55-29.4Q78.7-29.3 78.82-29.2 78.95-29.1 79.09-29L79.09-29Q79.2-28.85 79.3-28.7 79.4-28.55 79.59-28.45L79.59-28.45 80.3-28.45Q80.5-28.4 80.75-28.05L80.75-28.05Q81.05-27.7 81.32-27.35 81.59-27 81.95-26.6L81.95-26.6Q82.3-26.25 82.55-25.83 82.8-25.4 83.15-25L83.15-25Q83.3-24.9 83.37-24.7 83.45-24.5 83.5-24.3L83.5-24.3Q83.5-23.7 83.52-23.13 83.55-22.55 83.75-22ZM59.05-28.25L59.15-28.2 59.15-28.25 59.05-28.25ZM76.4-19.25L76.4-19.25Q76.4-19.25 76.34-19.3 76.3-19.35 76.3-19.4L76.3-19.4Q76.3-19.85 76.15-20.28 76-20.7 75.59-21L75.59-21Q75.4-21.1 75.3-21.28 75.2-21.45 75.05-21.6L75.05-21.6Q74.7-22.05 74.25-22.35L74.25-22.35Q74.2-22.45 74.05-22.48 73.9-22.5 73.8-22.55L73.8-22.55Q73.55-22.4 72.95-22.25L72.95-22.25Q72.55-22.5 72.09-22.5 71.65-22.5 71.15-22.4L71.15-22.4Q70.65-22.4 70.12-22.43 69.59-22.45 69.09-22.3L69.09-22.3Q68.55-22.35 68-22.3 67.45-22.25 66.9-22.2L66.9-22.2Q66.45-22.2 66.25-22.15L66.25-22.15Q65.9-21.95 65.57-21.98 65.25-22 64.9-21.9L64.9-21.9Q64.7-21.7 64.65-21.4 64.59-21.1 64.5-20.85L64.5-20.85Q64.8-19.7 64.4-18.55L64.4-18.55Q64.65-18.2 64.77-17.88 64.9-17.55 64.75-17.15L64.75-17.15Q64.75-17.1 64.77-17.05 64.8-17 64.8-16.95L64.8-16.95Q64.9-16.65 64.9-16.35 64.9-16.05 64.8-15.75L64.8-15.75Q64.7-15.7 64.57-15.63 64.45-15.55 64.34-15.45L64.34-15.45Q64.59-15.2 64.95-15.2L64.95-15.2Q65.09-15.3 65.3-15.38 65.5-15.45 65.7-15.6L65.7-15.6Q66.55-15.35 67.42-15.4 68.3-15.45 69.09-15.1L69.09-15.1 69.45-15.1Q69.65-15.1 69.9-15.15 70.15-15.2 70.34-15.2L70.34-15.2Q70.55-15.35 70.9-15.45L70.9-15.45Q72-15.75 72.84-16.45L72.84-16.45Q73.2-16.7 73.55-16.78 73.9-16.85 74.25-16.9L74.25-16.9Q74.4-16.9 74.57-16.9 74.75-16.9 74.95-16.95L74.95-16.95Q75.09-17.35 75.47-17.63 75.84-17.9 76.09-18.3L76.09-18.3Q75.9-18.55 76.12-18.75 76.34-18.95 76.4-19.25Z" opacity="1" transform="matrix(1,0,0,1,0,0)" fill="#d94e28" class="wordmark-text-0" data-fill-palette-color="primary" id="text-0"></path></svg></g></svg></g></svg></g></svg></g><g></g></svg></g></svg></g></svg></g></svg></g><defs></defs></svg><rect width="320" height="360" fill="none" stroke="none" visibility="hidden"></rect></g></svg></g></svg>